# xmcd
#
# Track frame offsets: 
#        182
#        14872
#        29907
#        44205
#        57865
#        72185
#        85985
#        100015
#        114040
#        129042
#        143900
#        158287
#        172637
#        185610
#        199552
#        212625
#
# Disc length: 2996 seconds
#
# Revision: 6
# Processed by: cddbd v1.5.2PL0 Copyright (c) Steve Scherf et al.
# Submitted via: ExactAudioCopy v1.3
#
DISCID=d40bb210
DTITLE=Reverend Gary Davis - The Complete Early Recordings Of Rev. Gar
DTITLE=y Davis
DYEAR=1900
DGENRE=Blues
TTITLE0=I Belong To The Band - Hallelujah!
TTITLE1=The Great Change In Me
TTITLE2=The Angel's Message To Me
TTITLE3=I Saw The Light
TTITLE4=Lord, Stand By Me
TTITLE5=I Am The Light
TTITLE6=O Lord, Search My Heart
TTITLE7=Have More Faith In Jesus
TTITLE8=You Got To Go Down
TTITLE9=I Am The True Vine
TTITLE10=Twelve Gates To The City
TTITLE11=You Can Go Home
TTITLE12=I'm Throwin' Up My Hand
TTITLE13=Cross And Evil Woman Blues
TTITLE14=I Can't Bear My Burden By Myself
TTITLE15=Meet Me At The Station
EXTD=Yazoo 2011\ntracks corrected
EXTT0=
EXTT1=
EXTT2=
EXTT3=
EXTT4=
EXTT5=
EXTT6=
EXTT7=
EXTT8=
EXTT9=
EXTT10=
EXTT11=
EXTT12=
EXTT13=
EXTT14=
EXTT15=
PLAYORDER=
